<svg height="16" width="16" xmlns="http://www.w3.org/2000/svg"><g stroke="#888a85" stroke-linecap="round" stroke-linejoin="round" transform="translate(0 -16)"><path d="m5.30322 18.528623v7.5 3.519678" fill="none"/><path d="m6.30322 29.528623c0 .552285-.4477153 1-1 1s-1-.447715-1-1 .4477153-1 1-1 1 .447715 1 1z" fill="#eeeeec" fill-rule="evenodd"/><path d="m6.30322 18.528623c0 .552285-.4477153 1-1 1s-1-.447715-1-1 .4477153-1 1-1 1 .447715 1 1z" fill="#eeeeec" fill-rule="evenodd"/><path d="m11.449016 21.796065s-.08431 2.999175-1.7173524 3.864937c-1.6859225.893797-4.3792487.829159-4.3792487.829159" fill="none"/><path d="m12.449016 21.867622c0 .552285-.447715 1-1 1s-1-.447715-1-1 .447715-1 1-1 1 .447715 1 1z" fill="#eeeeec" fill-rule="evenodd"/></g></svg>