<svg height="24" viewBox="0 0 24 24" width="24" xmlns="http://www.w3.org/2000/svg"><g transform="translate(0 -1028.3622)"><path d="m20.396621 1028.3982c-1.611884.027-2.884232 1.442-2.855991 2.9881.0623 1.8361 2.553534 4.6147 2.92627 5.7336.469962-1.2392 2.856423-3.8785 2.888329-5.8308-.02846-1.547-1.345861-2.9181-2.958608-2.8909zm.05109 4.2637c-.748921 0-1.356854-.6062-1.356854-1.3555 0-.75.607933-1.3567 1.356854-1.3567.749569 0 1.35707.6064 1.35707 1.3567 0 .7493-.608148 1.3555-1.35707 1.3555z"/><path d="m2.5228035 1046.1742c-1.046162.017-1.87195299.9359-1.85362399 1.9394.04044 1.1916 1.65731999 2.995 1.89923699 3.7212.305019-.8042 1.853903-2.5173 1.874611-3.7843-.01847-1.0041-.873503-1.894-1.920224-1.8763zm.03316 2.7672c-.486072 0-.880639-.3934-.880639-.8798 0-.4867.394567-.8805.880639-.8805.486493 0 .88078.3936.88078.8805 0 .4864-.394708.8798-.88078.8798z"/><path d="m4.3288203 1051.6878c15.9748747-.2525 17.9988777 1.0072 18.0829807-2.6933.0841-3.7006-15.447965-1.2331-15.195654-3.588s11.942718-.6728 11.942718-3.7847c0-3.1118-13.43825.2106-8.326261-2.9436 3.410711-2.1045 7.299685-2.0549 7.317017-2.1026l0 0" fill="none" stroke="#000" stroke-width=".86231613"/></g></svg>