<svg enable-background="new 0 0 100 100" viewBox="0 0 100 125" xmlns="http://www.w3.org/2000/svg"><path d="m83.225645 6.6947418c-7.477.125-13.379 6.6890002-13.248 13.8610002.289 8.517 11.845 21.406 13.574 26.596 2.18-5.748 13.25-17.991 13.398-27.047-.132-7.176-6.243-13.5360002-13.724-13.4100002zm.237 19.7780002c-3.474 0-6.294-2.812-6.294-6.288 0-3.479 2.82-6.293 6.294-6.293 3.477 0 6.295 2.813 6.295 6.293 0 3.476-2.821 6.288-6.295 6.288z"/><path d="m5.0158374 91.763066c-4.8527976.08114-8.6833722 4.341366-8.5983493 8.996214.1875693 5.52778 7.68776 13.89313 8.8099331 17.2616 1.4148854-3.73063 8.5996458-11.6767 8.6957048-17.55432-.08567-4.657439-4.0518916-8.785271-8.9072886-8.703494zm.1538195 12.836514c-2.2547295 0-4.0849937-1.82507-4.0849937-4.0811 0-2.257969 1.8302642-4.084342 4.0849937-4.084342 2.256679 0 4.0856501 1.825721 4.0856501 4.084342 0 2.25603-1.8309215 4.0811-4.0856501 4.0811z"/><path d="m13.654518 114.46652c47.985876-1.17039 82.707366 7.02232 83.097496-10.14336.39013-17.165682-70.613365-6.242073-69.442978-17.165682 1.170388-10.923614 55.39833-3.121033 55.39833-17.555809 0-14.434777-62.335609.97687-38.622779-13.654518 15.821165-9.76204 33.860833-9.532145 33.941227-9.753227l0 0" fill="none" stroke="#000" stroke-width="4"/></svg>