<?xml version="1.0" encoding="UTF-8" standalone="no"?>
<svg
   xmlns:dc="http://purl.org/dc/elements/1.1/"
   xmlns:cc="http://creativecommons.org/ns#"
   xmlns:rdf="http://www.w3.org/1999/02/22-rdf-syntax-ns#"
   xmlns:svg="http://www.w3.org/2000/svg"
   xmlns="http://www.w3.org/2000/svg"
   xmlns:sodipodi="http://sodipodi.sourceforge.net/DTD/sodipodi-0.dtd"
   xmlns:inkscape="http://www.inkscape.org/namespaces/inkscape"
   version="1.1"
   x="0px"
   y="0px"
   viewBox="0 0 100 125"
   enable-background="new 0 0 100 100"
   xml:space="preserve"
   id="svg3516"
   inkscape:version="0.91 r13725"
   sodipodi:docname="networkanalysis.svg"><metadata
     id="metadata3532"><rdf:RDF><cc:Work
         rdf:about=""><dc:format>image/svg+xml</dc:format><dc:type
           rdf:resource="http://purl.org/dc/dcmitype/StillImage" /><dc:title></dc:title></cc:Work></rdf:RDF></metadata><defs
     id="defs3530" /><sodipodi:namedview
     pagecolor="#ffffff"
     bordercolor="#666666"
     borderopacity="1"
     objecttolerance="10"
     gridtolerance="10"
     guidetolerance="10"
     inkscape:pageopacity="0"
     inkscape:pageshadow="2"
     inkscape:window-width="1366"
     inkscape:window-height="731"
     id="namedview3528"
     showgrid="false"
     inkscape:zoom="2.5632541"
     inkscape:cx="45.36441"
     inkscape:cy="63.544034"
     inkscape:window-x="0"
     inkscape:window-y="18"
     inkscape:window-maximized="1"
     inkscape:current-layer="svg3516" /><path
     d="m 83.225645,6.6947418 c -7.477,0.125 -13.379,6.6890002 -13.248,13.8610002 0.289,8.517 11.845,21.406 13.574,26.596 2.18,-5.748 13.25,-17.991 13.398,-27.047 -0.132,-7.176 -6.243,-13.5360002 -13.724,-13.4100002 z m 0.237,19.7780002 c -3.474,0 -6.294,-2.812 -6.294,-6.288 0,-3.479 2.82,-6.293 6.294,-6.293 3.477,0 6.295,2.813 6.295,6.293 0,3.476 -2.821,6.288 -6.295,6.288 z"
     id="path3518"
     inkscape:connector-curvature="0" /><path
     inkscape:connector-curvature="0"
     d="m 5.0158374,91.763066 c -4.8527976,0.08114 -8.6833722,4.341366 -8.5983493,8.996214 0.1875693,5.52778 7.68776,13.89313 8.8099331,17.2616 1.4148854,-3.73063 8.5996458,-11.6767 8.6957048,-17.55432 -0.08567,-4.657439 -4.0518916,-8.785271 -8.9072886,-8.703494 z m 0.1538195,12.836514 c -2.2547295,0 -4.0849937,-1.82507 -4.0849937,-4.0811 0,-2.257969 1.8302642,-4.084342 4.0849937,-4.084342 2.256679,0 4.0856501,1.825721 4.0856501,4.084342 0,2.25603 -1.8309215,4.0811 -4.0856501,4.0811 z"
     id="path3518-3" /><path
     style="fill:none;fill-rule:evenodd;stroke:#000000;stroke-width:4;stroke-linecap:butt;stroke-linejoin:miter;stroke-miterlimit:4;stroke-dasharray:none;stroke-opacity:1"
     d="m 13.654518,114.46652 c 47.985876,-1.17039 82.707366,7.02232 83.097496,-10.14336 0.39013,-17.165682 -70.613365,-6.242073 -69.442978,-17.165682 1.170388,-10.923614 55.39833,-3.121033 55.39833,-17.555809 0,-14.434777 -62.335609,0.97687 -38.622779,-13.654518 15.821165,-9.76204 33.860833,-9.532145 33.941227,-9.753227 l 0,0"
     id="path3557"
     inkscape:connector-curvature="0"
     sodipodi:nodetypes="csssscc" /></svg>